<svg width="25" height="37" viewBox="0 0 25 37" fill="none" xmlns="http://www.w3.org/2000/svg">
<path d="M4 13L3.5 13L3.5 12.5L4 12.5L4 13ZM4.35355 36.3536C4.15829 36.5488 3.84171 36.5488 3.64645 36.3536L0.464467 33.1716C0.269205 32.9763 0.269205 32.6597 0.464467 32.4645C0.659729 32.2692 0.976312 32.2692 1.17157 32.4645L4 35.2929L6.82843 32.4645C7.02369 32.2692 7.34027 32.2692 7.53553 32.4645C7.7308 32.6597 7.7308 32.9763 7.53553 33.1716L4.35355 36.3536ZM24 13L24.5 13L24.5 13.5L24 13.5L24 13ZM4.5 13L4.5 36L3.5 36L3.5 13L4.5 13ZM24.5 -2.4446e-07L24.5 13L23.5 13L23.5 -2.32535e-07L24.5 -2.4446e-07ZM24 13.5L4 13.5L4 12.5L24 12.5L24 13.5Z" fill="#FF8900"/>
</svg>
