<svg width="373" height="67" viewBox="0 0 373 67" fill="none" xmlns="http://www.w3.org/2000/svg">
<path d="M82.5 63L82.1973 63.3979L82.3314 63.5H82.5V63ZM372.354 63.3536C372.549 63.1583 372.549 62.8417 372.354 62.6464L369.172 59.4645C368.976 59.2692 368.66 59.2692 368.464 59.4645C368.269 59.6597 368.269 59.9763 368.464 60.1716L371.293 63L368.464 65.8284C368.269 66.0237 368.269 66.3403 368.464 66.5355C368.66 66.7308 368.976 66.7308 369.172 66.5355L372.354 63.3536ZM0.697273 1.39794L82.1973 63.3979L82.8027 62.6021L1.30273 0.60206L0.697273 1.39794ZM82.5 63.5H372V62.5H82.5V63.5Z" fill="#FF8900"/>
</svg>
