<svg width="167" height="68" viewBox="0 0 167 68" fill="none" xmlns="http://www.w3.org/2000/svg">
<path d="M0.999994 64L0.499994 64L0.499994 64.5L0.999994 64.5L0.999994 64ZM166.354 64.3536C166.549 64.1583 166.549 63.8417 166.354 63.6465L163.172 60.4645C162.976 60.2692 162.66 60.2692 162.464 60.4645C162.269 60.6597 162.269 60.9763 162.464 61.1716L165.293 64L162.464 66.8284C162.269 67.0237 162.269 67.3403 162.464 67.5356C162.66 67.7308 162.976 67.7308 163.172 67.5356L166.354 64.3536ZM0.5 -4.37114e-08L0.499994 64L1.49999 64L1.5 4.37114e-08L0.5 -4.37114e-08ZM0.999994 64.5L166 64.5L166 63.5L0.999994 63.5L0.999994 64.5Z" fill="#FF8900"/>
</svg>
