<svg width="22" height="103" viewBox="0 0 22 103" fill="none" xmlns="http://www.w3.org/2000/svg">
<path d="M18 49L18.5 49L18.5 48.5L18 48.5L18 49ZM17.6464 102.354C17.8417 102.549 18.1583 102.549 18.3536 102.354L21.5355 99.1716C21.7308 98.9763 21.7308 98.6597 21.5355 98.4645C21.3403 98.2692 21.0237 98.2692 20.8284 98.4645L18 101.293L15.1716 98.4645C14.9763 98.2692 14.6597 98.2692 14.4645 98.4645C14.2692 98.6597 14.2692 98.9763 14.4645 99.1716L17.6464 102.354ZM1 49L0.500001 49L0.500001 49.5L1 49.5L1 49ZM17.5 49L17.5 102L18.5 102L18.5 49L17.5 49ZM0.5 2.08685e-07L0.500001 49L1.5 49L1.5 1.96761e-07L0.5 2.08685e-07ZM1 49.5L18 49.5L18 48.5L1 48.5L1 49.5Z" fill="#FF8900"/>
</svg>
