<svg width="96" height="144" viewBox="0 0 96 144" fill="none" xmlns="http://www.w3.org/2000/svg">
<path d="M1 140H0.5V140.5H1V140ZM95.3536 140.354C95.5488 140.158 95.5488 139.842 95.3536 139.646L92.1716 136.464C91.9763 136.269 91.6597 136.269 91.4645 136.464C91.2692 136.66 91.2692 136.976 91.4645 137.172L94.2929 140L91.4645 142.828C91.2692 143.024 91.2692 143.34 91.4645 143.536C91.6597 143.731 91.9763 143.731 92.1716 143.536L95.3536 140.354ZM1 0.5V0H0.5V0.5H1ZM1 140.5H95V139.5H1V140.5ZM12.5 0H1V1H12.5V0ZM0.5 0.5V140H1.5V0.5H0.5Z" fill="#FF8900"/>
</svg>
