<svg width="128" height="108" viewBox="0 0 128 108" fill="none" xmlns="http://www.w3.org/2000/svg">
<path d="M1 104L0.500003 104L0.500003 104.5L1 104.5L1 104ZM127.354 104.354C127.549 104.158 127.549 103.842 127.354 103.646L124.172 100.464C123.976 100.269 123.66 100.269 123.464 100.464C123.269 100.66 123.269 100.976 123.464 101.172L126.293 104L123.464 106.828C123.269 107.024 123.269 107.34 123.464 107.536C123.66 107.731 123.976 107.731 124.172 107.536L127.354 104.354ZM0.500008 -5.52949e-06L0.500003 104L1.5 104L1.50001 -5.48578e-06L0.500008 -5.52949e-06ZM1 104.5L127 104.5L127 103.5L1 103.5L1 104.5Z" fill="#FF8900"/>
</svg>
