<svg width="38" height="149" viewBox="0 0 38 149" fill="none" xmlns="http://www.w3.org/2000/svg">
<path d="M37 145V145.5H37.5V145H37ZM0.146447 144.646C-0.0488155 144.842 -0.0488155 145.158 0.146447 145.354L3.32843 148.536C3.52369 148.731 3.84027 148.731 4.03553 148.536C4.2308 148.34 4.2308 148.024 4.03553 147.828L1.20711 145L4.03553 142.172C4.2308 141.976 4.2308 141.66 4.03553 141.464C3.84027 141.269 3.52369 141.269 3.32843 141.464L0.146447 144.646ZM36.5 0V145H37.5V0H36.5ZM37 144.5H0.5V145.5H37V144.5Z" fill="#FF8900"/>
</svg>
