<svg width="126" height="238" viewBox="0 0 126 238" fill="none" xmlns="http://www.w3.org/2000/svg">
<path d="M4 1L3.5 1L3.5 0.5L4 0.5L4 1ZM4.35358 237.354C4.15831 237.549 3.84173 237.549 3.64647 237.354L0.464489 234.172C0.269227 233.976 0.269227 233.66 0.464489 233.464C0.659751 233.269 0.976334 233.269 1.1716 233.464L4.00002 236.293L6.82845 233.464C7.02371 233.269 7.34029 233.269 7.53556 233.464C7.73082 233.66 7.73082 233.976 7.53556 234.172L4.35358 237.354ZM4.5 1L4.50002 237L3.50002 237L3.5 1L4.5 1ZM126 1.5L4 1.5L4 0.5L126 0.499999L126 1.5Z" fill="#FF8900"/>
</svg>
