<svg width="51" height="49" viewBox="0 0 51 49" fill="none" xmlns="http://www.w3.org/2000/svg">
<g opacity="0.283">
<path opacity="0.283" d="M40 17.8613H20C14.201 17.8613 9.5 22.5173 9.5 28.2607C9.5 34.0042 14.201 38.6602 20 38.6602H40C45.799 38.6602 50.5 34.0042 50.5 28.2607C50.5 22.5173 45.799 17.8613 40 17.8613Z" stroke="#6F6EFF" stroke-miterlimit="10"/>
</g>
<g filter="url(#filter0_d)">
<path d="M20 36.1846C24.4183 36.1846 28 32.6372 28 28.2612C28 23.8853 24.4183 20.3379 20 20.3379C15.5817 20.3379 12 23.8853 12 28.2612C12 32.6372 15.5817 36.1846 20 36.1846Z" fill="#6F6EFF"/>
</g>
<path d="M47.229 8.82597C47.1822 8.76869 47.1185 8.72737 47.0467 8.70783C46.975 8.68829 46.8988 8.69151 46.829 8.71703C46.4209 8.85972 45.9909 8.93143 45.558 8.92897C44.7227 8.93053 43.9089 8.6664 43.2365 8.17546C42.5641 7.68453 42.0686 6.99273 41.823 6.20194C41.5774 5.41115 41.5947 4.56316 41.8723 3.78284C42.1499 3.00251 42.6732 2.33108 43.365 1.86741C43.4242 1.82762 43.4699 1.77105 43.4961 1.7051C43.5222 1.63916 43.5277 1.56692 43.5117 1.49786C43.4957 1.4288 43.459 1.36615 43.4064 1.3181C43.3538 1.27005 43.2878 1.23885 43.217 1.2286C43.0514 1.20603 42.8843 1.19544 42.717 1.19691C41.7891 1.19698 40.8772 1.43731 40.072 1.89407C39.2667 2.35083 38.596 3.00816 38.1264 3.80084C37.6568 4.59353 37.4045 5.49404 37.3947 6.41305C37.3849 7.33207 37.6178 8.23766 38.0704 9.04001C38.523 9.84235 39.1795 10.5136 39.9748 10.9871C40.7702 11.4606 41.6767 11.72 42.6044 11.7395C43.5322 11.759 44.449 11.538 45.2639 11.0983C46.0788 10.6587 46.7635 10.0156 47.25 9.23303C47.2894 9.17133 47.3085 9.09908 47.3047 9.0262C47.301 8.95332 47.2745 8.88338 47.229 8.82597Z" fill="#5E5E7B"/>
<path d="M24.991 7.8583L23.775 6.19838L24.991 4.53847C25.0115 4.51017 25.0247 4.4773 25.0294 4.44277C25.0341 4.40823 25.0302 4.37308 25.018 4.3404C25.0096 4.3082 24.9926 4.27881 24.9689 4.2553C24.9452 4.23179 24.9155 4.215 24.883 4.20668L22.91 3.56391V1.51577C22.9107 1.48198 22.903 1.44853 22.8877 1.41833C22.8723 1.38813 22.8498 1.36208 22.822 1.34245C22.794 1.32083 22.7608 1.30697 22.7256 1.30227C22.6905 1.29757 22.6547 1.30221 22.622 1.31572L20.649 1.94461L19.433 0.284711C19.4113 0.259446 19.3843 0.239146 19.3539 0.225229C19.3236 0.211311 19.2905 0.204102 19.257 0.204102C19.2235 0.204102 19.1904 0.211311 19.16 0.225229C19.1297 0.239146 19.1027 0.259446 19.081 0.284711L17.865 1.94461L15.892 1.31572C15.8593 1.30221 15.8235 1.29757 15.7883 1.30227C15.7532 1.30697 15.7199 1.32083 15.692 1.34245C15.6645 1.36225 15.6422 1.38836 15.627 1.41854C15.6119 1.44872 15.6043 1.48208 15.605 1.51577V3.56391L13.632 4.20668C13.5995 4.2149 13.5697 4.23167 13.546 4.25519C13.5222 4.27872 13.5053 4.30816 13.497 4.3404C13.4846 4.37305 13.4806 4.40823 13.4853 4.4428C13.4901 4.47737 13.5033 4.51024 13.524 4.53847L14.74 6.19838L13.524 7.8583C13.503 7.88637 13.4895 7.91925 13.4848 7.95388C13.4801 7.98852 13.4843 8.02378 13.497 8.05637C13.5053 8.08862 13.5222 8.11805 13.546 8.14158C13.5697 8.1651 13.5995 8.18185 13.632 8.19007L15.605 8.83284V10.881C15.6043 10.9148 15.6118 10.9484 15.6269 10.9787C15.6421 11.0091 15.6644 11.0353 15.692 11.0553C15.7199 11.0769 15.7532 11.0908 15.7883 11.0955C15.8235 11.1002 15.8593 11.0955 15.892 11.082L17.865 10.4531L19.081 12.113C19.1015 12.1401 19.1281 12.1621 19.1586 12.1772C19.1892 12.1923 19.2228 12.2002 19.257 12.2002C19.2911 12.2002 19.3248 12.1923 19.3554 12.1772C19.3859 12.1621 19.4125 12.1401 19.433 12.113L20.649 10.4531L22.622 11.082C22.6547 11.0955 22.6905 11.1002 22.7256 11.0955C22.7608 11.0908 22.794 11.0769 22.822 11.0553C22.8499 11.0355 22.8724 11.0093 22.8878 10.9789C22.9031 10.9486 22.9107 10.9149 22.91 10.881V8.82591L24.883 8.18314C24.9155 8.17491 24.9453 8.15817 24.969 8.13464C24.9928 8.11111 25.0097 8.08168 25.018 8.04944C25.0306 8.01682 25.0347 7.98159 25.03 7.94699C25.0252 7.91239 25.0118 7.87951 24.991 7.85136V7.8583Z" fill="#5E5E7B"/>
<defs>
<filter id="filter0_d" x="0" y="8.33789" width="40" height="39.8467" filterUnits="userSpaceOnUse" color-interpolation-filters="sRGB">
<feFlood flood-opacity="0" result="BackgroundImageFix"/>
<feColorMatrix in="SourceAlpha" type="matrix" values="0 0 0 0 0 0 0 0 0 0 0 0 0 0 0 0 0 0 127 0"/>
<feOffset/>
<feGaussianBlur stdDeviation="6"/>
<feColorMatrix type="matrix" values="0 0 0 0 0.435294 0 0 0 0 0.431373 0 0 0 0 1 0 0 0 0.502 0"/>
<feBlend mode="normal" in2="BackgroundImageFix" result="effect1_dropShadow"/>
<feBlend mode="normal" in="SourceGraphic" in2="effect1_dropShadow" result="shape"/>
</filter>
</defs>
</svg>
