<svg width="24" height="24" viewBox="0 0 24 24" fill="none" xmlns="http://www.w3.org/2000/svg">
<path fill-rule="evenodd" clip-rule="evenodd" d="M1.5 1.5V8.25H0V1.5C0 0.671573 0.671573 0 1.5 0H8.25V1.5H1.5ZM22.5 8.25H24V1.5C24 0.671573 23.3284 0 22.5 0H15.75V1.5H22.5V8.25ZM15.75 22.5V24H22.5C23.3284 24 24 23.3284 24 22.5V15.75H22.5V22.5H15.75ZM1.5 15.75H0V22.5C0 23.3284 0.671573 24 1.5 24H8.25V22.5H1.5V15.75Z" fill="#6F6EFF"/>
<path d="M17.2805 10.1615C17.2727 10.1525 17.266 10.1437 17.2568 10.1349L16.8498 9.74213C17.1873 9.66557 17.5507 9.38277 17.5507 9.09263C17.5507 8.75461 17.0816 8.63467 16.6812 8.63467C16.2626 8.63467 16.214 8.92149 16.2091 9.12416L15.159 8.11175C14.9456 7.90054 14.541 7.73438 14.2385 7.73438H12.1933H12.1928H10.1471C9.84492 7.73438 9.44052 7.90054 9.22694 8.11175L8.17708 9.12416C8.17163 8.92149 8.12303 8.63467 7.70489 8.63467C7.30405 8.63467 6.83518 8.75461 6.83518 9.09263C6.83518 9.38277 7.1988 9.66557 7.53635 9.74213L7.12935 10.1349C7.1201 10.1437 7.1137 10.1525 7.10564 10.1615C6.67019 10.5336 6.38574 11.2239 6.38574 11.7248V13.2132C6.38574 13.5744 6.52821 13.9022 6.75837 14.1466V14.7238C6.75837 15.0614 7.04093 15.3366 7.38844 15.3366H8.15029C8.4978 15.3366 8.78012 15.0619 8.78012 14.7238V14.5762H12.1928H12.1933H15.6058V14.7238C15.6058 15.0619 15.8879 15.3366 16.2358 15.3366H16.9975C17.3452 15.3366 17.6273 15.0614 17.6273 14.7238V14.1466C17.8577 13.9022 17.9999 13.5744 17.9999 13.2132V11.7248C18.0004 11.2239 17.7159 10.5336 17.2805 10.1615ZM9.61261 8.56166C9.76029 8.43863 10.0184 8.34524 10.1471 8.34524H12.1928H12.1933H14.239C14.3677 8.34524 14.6258 8.43863 14.7735 8.56166L16.1505 9.89621H12.1933H12.1928H8.23587L9.61261 8.56166ZM6.85817 11.4996C6.85817 11.1331 7.14499 10.8356 7.49913 10.8356C7.85304 10.8356 9.00958 11.5145 9.00958 11.881C9.00958 12.2474 7.85304 12.1626 7.49913 12.1626C7.14499 12.1626 6.85817 11.8663 6.85817 11.4996ZM8.78035 13.9236H8.65828H8.5362L7.81203 13.9248C7.61102 13.8622 7.46927 13.7892 7.369 13.7107C7.31827 13.6711 7.2794 13.6299 7.24905 13.5889C7.21848 13.5474 7.19619 13.5066 7.18173 13.4658C7.09166 13.2113 7.27774 12.9773 7.27774 12.9773H8.51368L9.33764 13.9231L8.78035 13.9236ZM13.9702 13.9241H12.1933H12.1928H10.416C10.0455 13.9241 9.74465 13.6232 9.74465 13.253H12.1928H12.1933H14.6415C14.6415 13.6237 14.3407 13.9241 13.9702 13.9241ZM14.1262 12.795H12.1933H12.1928H10.26C9.85701 12.795 9.52989 12.2982 9.52989 11.6854H12.1928H12.1933H14.8563C14.8563 12.2984 14.5291 12.795 14.1262 12.795ZM17.2046 13.4663C17.1899 13.5071 17.1677 13.5479 17.1371 13.5891C17.107 13.6301 17.0681 13.6714 17.0171 13.7109C16.9171 13.7894 16.7751 13.8629 16.5741 13.925L15.8499 13.9238H15.7279H15.6058H15.048L15.8725 12.978H17.1082C17.1082 12.9778 17.2945 13.2113 17.2046 13.4663ZM16.887 12.1626C16.5333 12.1626 15.3768 12.247 15.3768 11.881C15.3768 11.515 16.5333 10.8356 16.887 10.8356C17.2411 10.8356 17.528 11.1331 17.528 11.4996C17.528 11.8658 17.2411 12.1626 16.887 12.1626Z" fill="#6F6EFF"/>
</svg>
