<svg width="51" height="48" viewBox="0 0 51 48" fill="none" xmlns="http://www.w3.org/2000/svg">
<g opacity="0.283">
<path opacity="0.283" d="M31 17.667H11C5.20101 17.667 0.5 22.323 0.5 28.0664C0.5 33.8098 5.20101 38.4658 11 38.4658H31C36.799 38.4658 41.5 33.8098 41.5 28.0664C41.5 22.323 36.799 17.667 31 17.667Z" stroke="#6F6EFF" stroke-miterlimit="10"/>
</g>
<g filter="url(#filter0_d)">
<path d="M31 35.9902C35.4183 35.9902 39 32.4428 39 28.0669C39 23.691 35.4183 20.1436 31 20.1436C26.5817 20.1436 23 23.691 23 28.0669C23 32.4428 26.5817 35.9902 31 35.9902Z" fill="#6F6EFF"/>
</g>
<path d="M38.229 8.63213C38.1822 8.57484 38.1185 8.53353 38.0467 8.51398C37.975 8.49444 37.8988 8.49766 37.829 8.52318C37.4209 8.66587 36.9909 8.73758 36.558 8.73513C35.7227 8.73669 34.9089 8.47255 34.2365 7.98162C33.5641 7.49068 33.0686 6.79888 32.823 6.00809C32.5774 5.21731 32.5947 4.36932 32.8723 3.58899C33.1499 2.80866 33.6732 2.13723 34.365 1.67357C34.4242 1.63378 34.4699 1.5772 34.4961 1.51126C34.5222 1.44531 34.5277 1.37308 34.5117 1.30402C34.4957 1.23496 34.459 1.1723 34.4064 1.12425C34.3538 1.0762 34.2878 1.04501 34.217 1.03476C34.0514 1.01219 33.8843 1.0016 33.717 1.00306C32.7891 1.00313 31.8772 1.24346 31.072 1.70022C30.2667 2.15699 29.596 2.81431 29.1264 3.60699C28.6568 4.39968 28.4045 5.30019 28.3947 6.2192C28.3849 7.13822 28.6178 8.04381 29.0704 8.84616C29.523 9.64851 30.1795 10.3197 30.9748 10.7933C31.7702 11.2668 32.6767 11.5262 33.6044 11.5457C34.5322 11.5652 35.449 11.3442 36.2639 10.9045C37.0788 10.4648 37.7635 9.82178 38.25 9.03918C38.2894 8.97748 38.3085 8.90523 38.3047 8.83235C38.301 8.75947 38.2745 8.68953 38.229 8.63213Z" fill="#5E5E7B"/>
<path d="M15.991 7.66427L14.775 6.00429L15.991 4.34431C16.0115 4.31601 16.0247 4.28314 16.0294 4.2486C16.0341 4.21407 16.0302 4.17891 16.018 4.14623C16.0096 4.11403 15.9926 4.08464 15.9689 4.06113C15.9452 4.03761 15.9155 4.02083 15.883 4.01251L13.91 3.36971V1.32149C13.9107 1.28769 13.903 1.25424 13.8877 1.22404C13.8723 1.19384 13.8498 1.16779 13.822 1.14816C13.794 1.12654 13.7608 1.11267 13.7256 1.10798C13.6905 1.10328 13.6547 1.10792 13.622 1.12143L11.649 1.75035L10.433 0.0903779C10.4113 0.065112 10.3843 0.0448116 10.3539 0.0308935C10.3236 0.0169753 10.2905 0.00976562 10.257 0.00976562C10.2235 0.00976562 10.1904 0.0169753 10.16 0.0308935C10.1297 0.0448116 10.1027 0.065112 10.081 0.0903779L8.865 1.75035L6.89201 1.12143C6.85927 1.10792 6.82349 1.10328 6.78834 1.10798C6.7532 1.11267 6.71995 1.12654 6.692 1.14816C6.66446 1.16796 6.64218 1.19407 6.62703 1.22425C6.61188 1.25444 6.60434 1.28779 6.60502 1.32149V3.36971L4.63201 4.01251C4.59945 4.02073 4.56973 4.03749 4.54598 4.06102C4.52222 4.08455 4.50533 4.11399 4.49703 4.14623C4.48464 4.17888 4.48063 4.21406 4.48534 4.24863C4.49005 4.2832 4.50332 4.31608 4.524 4.34431L5.74001 6.00429L4.524 7.66427C4.50299 7.69235 4.48951 7.72522 4.48479 7.75986C4.48007 7.7945 4.48428 7.82977 4.49703 7.86236C4.50533 7.8946 4.52222 7.92404 4.54598 7.94756C4.56973 7.97109 4.59945 7.98784 4.63201 7.99606L6.60502 8.63886V10.6871C6.60426 10.7209 6.61176 10.7545 6.62691 10.7848C6.64205 10.8152 6.66438 10.8415 6.692 10.8614C6.71995 10.883 6.7532 10.8969 6.78834 10.9016C6.82349 10.9063 6.85927 10.9016 6.89201 10.8881L8.865 10.2592L10.081 11.9192C10.1015 11.9463 10.1281 11.9682 10.1586 11.9833C10.1892 11.9985 10.2228 12.0063 10.257 12.0063C10.2911 12.0063 10.3248 11.9985 10.3554 11.9833C10.3859 11.9682 10.4125 11.9463 10.433 11.9192L11.649 10.2592L13.622 10.8881C13.6547 10.9016 13.6905 10.9063 13.7256 10.9016C13.7608 10.8969 13.794 10.883 13.822 10.8614C13.8499 10.8416 13.8724 10.8154 13.8878 10.785C13.9031 10.7547 13.9107 10.721 13.91 10.6871V8.63192L15.883 7.98912C15.9155 7.9809 15.9453 7.96416 15.969 7.94063C15.9928 7.9171 16.0097 7.88766 16.018 7.85542C16.0306 7.8228 16.0347 7.78757 16.03 7.75297C16.0252 7.71837 16.0118 7.68549 15.991 7.65734V7.66427Z" fill="#5E5E7B"/>
<defs>
<filter id="filter0_d" x="11" y="8.14355" width="40" height="39.8467" filterUnits="userSpaceOnUse" color-interpolation-filters="sRGB">
<feFlood flood-opacity="0" result="BackgroundImageFix"/>
<feColorMatrix in="SourceAlpha" type="matrix" values="0 0 0 0 0 0 0 0 0 0 0 0 0 0 0 0 0 0 127 0"/>
<feOffset/>
<feGaussianBlur stdDeviation="6"/>
<feColorMatrix type="matrix" values="0 0 0 0 0.435294 0 0 0 0 0.431373 0 0 0 0 1 0 0 0 0.502 0"/>
<feBlend mode="normal" in2="BackgroundImageFix" result="effect1_dropShadow"/>
<feBlend mode="normal" in="SourceGraphic" in2="effect1_dropShadow" result="shape"/>
</filter>
</defs>
</svg>
