<svg width="24" height="24" viewBox="0 0 24 24" fill="none" xmlns="http://www.w3.org/2000/svg">
<path fill-rule="evenodd" clip-rule="evenodd" d="M1.5 1.5V8.25H0V1.5C0 0.671573 0.671573 0 1.5 0H8.25V1.5H1.5ZM22.5 8.25H24V1.5C24 0.671573 23.3284 0 22.5 0H15.75V1.5H22.5V8.25ZM15.75 22.5V24H22.5C23.3284 24 24 23.3284 24 22.5V15.75H22.5V22.5H15.75ZM1.5 15.75H0V22.5C0 23.3284 0.671573 24 1.5 24H8.25V22.5H1.5V15.75Z" fill="#6F6EFF"/>
<path d="M18.0868 10.0526H15.4198V8.18039C15.4196 7.9951 15.3679 7.81402 15.2713 7.65999C15.1747 7.50597 15.0374 7.3859 14.8769 7.31493C14.7164 7.24397 14.5397 7.22528 14.3692 7.26124C14.1987 7.29719 14.042 7.38617 13.9189 7.51695L10.4031 11.2667C10.3212 11.3537 10.2562 11.4571 10.2119 11.571C10.1676 11.6848 10.1448 11.8069 10.1448 11.9302C10.1448 12.0534 10.1676 12.1755 10.2119 12.2893C10.2562 12.4032 10.3212 12.5066 10.4031 12.5936L12.4192 14.7432L9.96252 17.3611C9.88081 17.4482 9.81598 17.5516 9.77176 17.6655C9.72753 17.7793 9.70477 17.9013 9.70477 18.0245C9.70477 18.1477 9.72753 18.2697 9.77176 18.3836C9.81598 18.4974 9.88081 18.6008 9.96252 18.688C10.0442 18.7751 10.1413 18.8442 10.248 18.8914C10.3548 18.9385 10.4692 18.9628 10.5848 18.9628C10.7004 18.9628 10.8148 18.9385 10.9216 18.8914C11.0283 18.8442 11.1253 18.7751 11.2071 18.688L14.2848 15.4066C14.3667 15.3196 14.4316 15.2162 14.476 15.1023C14.5203 14.9885 14.5431 14.8664 14.5431 14.7432C14.5431 14.6199 14.5203 14.4978 14.476 14.384C14.4316 14.2701 14.3667 14.1667 14.2848 14.0797L12.2686 11.9302L13.6625 10.4361V10.9854C13.6625 11.2339 13.7551 11.4721 13.9199 11.6478C14.0846 11.8235 14.3081 11.9222 14.5412 11.9222H18.0868C18.2051 11.9269 18.323 11.9062 18.4336 11.8612C18.5441 11.8163 18.6451 11.748 18.7303 11.6605C18.8155 11.5729 18.8833 11.468 18.9296 11.3519C18.9759 11.2358 18.9998 11.1109 18.9998 10.9848C18.9998 10.8586 18.9759 10.7337 18.9296 10.6176C18.8833 10.5015 18.8155 10.3966 18.7303 10.3091C18.6451 10.2215 18.5441 10.1533 18.4336 10.1083C18.323 10.0633 18.2051 10.0426 18.0868 10.0473V10.0526Z" fill="#6F6EFF"/>
<path d="M12.1717 5.28919C12.0025 5.16939 11.7996 5.11569 11.5975 5.13722C11.3954 5.15874 11.2065 5.25416 11.0628 5.40728L8.64472 7.98408C8.563 8.0712 8.49818 8.17464 8.45395 8.28847C8.40973 8.4023 8.38696 8.52431 8.38696 8.64752C8.38696 8.77073 8.40973 8.89274 8.45395 9.00657C8.49818 9.1204 8.563 9.22383 8.64472 9.31096C8.72643 9.39808 8.82345 9.46719 8.93021 9.51435C9.03698 9.5615 9.15142 9.58576 9.26698 9.58576C9.38255 9.58576 9.49698 9.5615 9.60375 9.51435C9.71052 9.46719 9.80753 9.39808 9.88925 9.31096L11.7971 7.27685L12.4405 7.77045L13.2993 6.85491C13.4438 6.70298 13.6123 6.57945 13.7971 6.49002L12.1717 5.28919Z" fill="#6F6EFF"/>
<path d="M9.78105 13.2532C9.56361 13.0189 9.40855 12.7272 9.33177 12.408L4.68841 17.3586C4.52338 17.5345 4.43066 17.7732 4.43066 18.022C4.43066 18.2708 4.52338 18.5095 4.68841 18.6854C4.85345 18.8614 5.07729 18.9602 5.31068 18.9602C5.54408 18.9602 5.76791 18.8614 5.93295 18.6854L10.4046 13.9179L9.78105 13.2532Z" fill="#6F6EFF"/>
<path d="M15.8606 7.24147C16.5892 7.24147 17.1798 6.61159 17.1798 5.8346C17.1798 5.05761 16.5892 4.42773 15.8606 4.42773C15.132 4.42773 14.5414 5.05761 14.5414 5.8346C14.5414 6.61159 15.132 7.24147 15.8606 7.24147Z" fill="#6F6EFF"/>
</svg>
