<svg width="24" height="24" viewBox="0 0 24 24" fill="none" xmlns="http://www.w3.org/2000/svg">
<path fill-rule="evenodd" clip-rule="evenodd" d="M1.5 1.5V8.25H0V1.5C0 0.671573 0.671573 0 1.5 0H8.25V1.5H1.5ZM22.5 8.25H24V1.5C24 0.671573 23.3284 0 22.5 0H15.75V1.5H22.5V8.25ZM15.75 22.5V24H22.5C23.3284 24 24 23.3284 24 22.5V15.75H22.5V22.5H15.75ZM1.5 15.75H0V22.5C0 23.3284 0.671573 24 1.5 24H8.25V22.5H1.5V15.75Z" fill="#6F6EFF"/>
<path d="M18.4819 8.95457C18.4788 8.32468 17.9637 7.81226 17.3339 7.81226H16.0337H16.0295H15.1784C15.4622 8.1413 15.6354 8.5682 15.6377 9.03463L15.6574 12.9512C15.6603 13.517 15.261 13.9825 14.7391 14.0933V17.115C14.7391 17.4366 14.9998 17.6972 15.3213 17.6972C15.6428 17.6972 15.9035 17.4366 15.9035 17.115V12.4616H16.1549V17.115C16.1549 17.4366 16.4155 17.6972 16.7371 17.6972C17.0586 17.6972 17.3193 17.4366 17.3193 17.115C17.3193 9.40914 17.309 13.8319 17.3087 8.94731C17.3087 8.89115 17.3542 8.84563 17.4104 8.84563C17.4665 8.84563 17.512 8.89115 17.5121 8.94726C17.5121 8.95128 17.512 8.95529 17.5118 8.9595L17.5297 12.5237C17.531 12.7908 17.748 13.0064 18.0148 13.0064C18.0156 13.0064 18.0164 13.0064 18.0173 13.0064C18.2852 13.0051 18.5013 12.7868 18.5 12.5189L18.4819 8.95457Z" fill="#6F6EFF"/>
<path d="M16.0355 7.49148C16.5893 7.49148 17.041 7.04204 17.041 6.48598C17.041 5.93064 16.5909 5.48047 16.0355 5.48047C15.4802 5.48047 15.03 5.93064 15.03 6.48598C15.0301 7.04296 15.4825 7.49148 16.0355 7.49148Z" fill="#6F6EFF"/>
<path d="M15.0281 12.954L15.0084 9.03747C15.005 8.34533 14.439 7.78226 13.7469 7.78226C13.6427 7.78226 10.9292 7.78206 10.8706 7.78264C11.1911 8.13399 11.3879 8.60002 11.3905 9.11057L11.4117 13.3311C11.4138 13.7414 11.209 14.1053 10.8957 14.3242V18.0044C10.8957 18.3577 11.1821 18.6441 11.5354 18.6441C11.8886 18.6441 12.1751 18.3577 12.1751 18.0044V12.8911H12.4513V18.0045C12.4513 18.3577 12.7377 18.6442 13.091 18.6442C13.4443 18.6442 13.7307 18.3578 13.7307 18.0045C13.7307 9.54231 13.7193 14.3906 13.7191 9.03989C13.7191 8.97826 13.769 8.92834 13.8306 8.92829C13.8923 8.92829 13.9422 8.97821 13.9422 9.03984C13.9422 9.04086 13.9422 9.04188 13.9422 9.04284L13.9619 12.9593C13.9634 13.2529 14.2018 13.4897 14.495 13.4897C14.4959 13.4898 14.4968 13.4898 14.4977 13.4898C14.7922 13.4883 15.0296 13.2484 15.0281 12.954Z" fill="#6F6EFF"/>
<path d="M9.4024 7.76099C9.08265 7.76099 6.63869 7.76099 6.31821 7.76099C5.57232 7.76099 4.96247 8.36779 4.9587 9.11372L4.93751 13.3343C4.93596 13.644 5.1816 13.9017 5.49541 13.9108C5.5 13.911 5.5045 13.9116 5.5091 13.9116C5.51007 13.9116 5.51103 13.9116 5.51205 13.9116C5.82798 13.9116 6.0849 13.6563 6.08649 13.34L6.10768 9.11948V9.11943C6.10797 9.05829 6.15775 9.00895 6.21889 9.00909C6.28004 9.00924 6.32953 9.05892 6.32953 9.12001L6.32982 18.7768C6.32982 19.1575 6.63844 19.4662 7.0192 19.4662C7.4016 19.4662 7.70858 19.1555 7.70858 18.7768V13.2665H8.00623V18.7769C8.00623 19.1559 8.31311 19.4663 8.69561 19.4663C9.07636 19.4663 9.38499 19.1576 9.38499 18.7769C9.38499 16.3115 9.37314 11.7011 9.37251 9.12016C9.37246 9.05389 9.42611 9.00009 9.49238 8.9999C9.55865 8.99971 9.61254 9.05321 9.61288 9.11953L9.63412 13.3401C9.63571 13.6564 9.89253 13.9117 10.2086 13.9117C10.2095 13.9117 10.2105 13.9117 10.2115 13.9117C10.5281 13.9101 10.7847 13.6522 10.7831 13.3343L10.7619 9.11377C10.7581 8.37229 10.1518 7.76099 9.4024 7.76099Z" fill="#6F6EFF"/>
<path d="M7.86507 7.38127C8.52292 7.38127 9.05571 6.84678 9.05571 6.19064C9.05576 5.53512 8.52403 5 7.86507 5C7.21386 5 6.67444 5.52742 6.67444 6.19068C6.67444 6.84998 7.21028 7.38127 7.86507 7.38127Z" fill="#6F6EFF"/>
<path d="M12.3208 7.4302C12.9295 7.4302 13.4257 6.93605 13.4257 6.32533C13.4257 5.71509 12.9311 5.22046 12.3208 5.22046C11.7106 5.22046 11.2159 5.71513 11.2159 6.32533C11.2159 6.93533 11.7113 7.4302 12.3208 7.4302Z" fill="#6F6EFF"/>
</svg>
