<svg width="23" height="23" viewBox="0 0 23 23" fill="none" xmlns="http://www.w3.org/2000/svg">
<path d="M11.1018 9.56974C10.6961 9.56974 10.3592 9.76007 10.0846 10.1345C9.80999 10.5089 9.67582 11.0019 9.67582 11.6166C9.67582 12.1127 9.77255 12.5277 9.96912 12.8585C10.1626 13.1923 10.4184 13.3577 10.7367 13.3577C11.2047 13.3577 11.6041 13.1299 11.9411 12.6775C12.2781 12.2219 12.4466 11.704 12.4497 11.1205C12.4497 10.6493 12.3124 10.2749 12.041 9.99409C11.7664 9.70703 11.4544 9.56974 11.1018 9.56974Z" fill="white"/>
<path d="M11.2827 0C5.05165 0 0 5.05165 0 11.2827C0 17.5138 5.05165 22.5655 11.2827 22.5655C17.5138 22.5655 22.5655 17.5138 22.5655 11.2827C22.5686 5.05165 17.517 0 11.2827 0ZM17.102 13.7914C16.2907 14.7649 15.3266 15.2485 14.2126 15.2485C13.4544 15.2485 12.8803 14.9584 12.4903 14.3718C11.9723 14.9802 11.3514 15.2891 10.6244 15.2891C9.80999 15.2891 9.11418 14.9459 8.53382 14.2563C7.95346 13.5699 7.6664 12.6619 7.6664 11.5417C7.6664 10.3935 7.9909 9.45429 8.64615 8.72727C9.29827 8.00026 10.0815 7.63207 10.9988 7.63207C11.576 7.63207 12.1065 7.83177 12.5932 8.22804L12.7149 7.78497H14.6183L14.066 12.3062C14.0348 12.6151 14.0161 12.8834 14.0161 13.1112C14.0161 13.3951 14.1471 13.5324 14.4092 13.5324C14.8928 13.5324 15.3609 13.2298 15.8102 12.6182C16.2595 12.0098 16.4842 11.2422 16.4842 10.3217C16.4842 8.97689 15.9943 7.86297 15.0114 6.97683C14.0317 6.09068 12.8273 5.64761 11.4013 5.64761C9.8568 5.64761 8.54942 6.18741 7.49166 7.26389C6.43079 8.34349 5.89723 9.6883 5.89723 11.2983C5.89723 12.7836 6.39334 14.0753 7.38246 15.1768C8.37469 16.2813 9.77567 16.8305 11.5854 16.8305C12.7212 16.8305 13.8881 16.5746 15.0769 16.0629C15.5387 15.8664 16.066 16.0816 16.2533 16.5434C16.4342 16.9928 16.2189 17.5045 15.7727 17.6948C14.4061 18.2814 13.0113 18.5716 11.5885 18.5716C9.22963 18.5716 7.35749 17.8539 5.96275 16.4218C4.57425 14.9896 3.87844 13.2797 3.87844 11.289C3.87844 9.21403 4.60857 7.47918 6.06884 6.08444C7.52911 4.6897 9.29828 3.99389 11.3732 3.99389C13.3483 3.99389 15.002 4.60545 16.3313 5.8317C17.6636 7.05795 18.3251 8.54006 18.3251 10.278C18.3189 11.6509 17.9132 12.821 17.102 13.7914Z" fill="white"/>
</svg>
