<svg width="23" height="23" viewBox="0 0 23 23" fill="none" xmlns="http://www.w3.org/2000/svg">
<path d="M11.6356 0C5.3856 0 0.316895 5.07109 0.316895 11.324C0.316895 17.577 5.3856 22.648 11.6356 22.648C17.8856 22.648 22.9543 17.577 22.9543 11.324C22.9543 5.07109 17.8856 0 11.6356 0ZM16.5747 16.57C16.5506 16.57 16.5235 16.57 16.4994 16.57C15.6677 16.4343 15.1011 15.8464 14.616 15.3007C14.3417 14.9932 13.9259 14.2967 13.4256 14.3781C12.7174 14.4927 13.067 15.7047 12.7717 16.2233C12.5336 16.6423 11.5151 16.567 10.8129 16.4916C8.59799 16.2564 7.46492 15.0746 6.47348 13.8023C5.41272 12.4426 4.58702 11.0225 3.8216 9.45779C3.57449 8.95128 3.24602 8.39353 3.24602 7.76642C3.60462 7.47398 4.19226 7.57347 4.7829 7.57347C5.28314 7.57347 6.06665 7.46192 6.4343 7.64884C6.65127 7.76039 6.87427 8.3483 7.04905 8.72517C7.45286 9.58743 7.82654 10.2085 8.31774 10.917C8.5317 11.2245 8.85716 11.8004 9.23987 11.725C9.61053 11.6496 9.64669 10.7361 9.66176 10.1482C9.67984 9.48191 9.66176 8.65582 9.4689 8.30308C9.28809 7.97144 8.9566 7.96239 8.62512 7.76642C8.90236 7.20565 9.66477 7.15138 10.5839 7.15138C11.3553 7.15138 12.4342 7.06395 12.7355 7.57347C13.0429 8.09203 12.832 9.02666 12.8109 9.72612C12.7898 10.513 12.6542 11.324 13.1936 11.6858C13.6125 11.6406 13.8355 11.2336 14.0765 10.917C14.6069 10.2236 14.9354 9.6206 15.3452 8.72517C15.514 8.35735 15.6948 7.72723 15.9992 7.60965C16.4632 7.43478 17.2015 7.57045 17.8826 7.57045C18.4401 7.57045 19.4315 7.41669 19.6123 7.79959C19.76 8.11917 19.3261 8.92415 19.1904 9.14424C18.6751 9.98841 18.1719 10.5251 17.6144 11.2577C17.3914 11.5501 16.9333 12.0205 16.9605 12.4878C16.9816 12.8435 17.3371 13.1149 17.6144 13.3712C18.2111 13.9259 18.6299 14.3299 19.1121 14.948C19.2929 15.1801 19.6877 15.6836 19.6485 15.9851C19.531 16.9348 17.3191 16.3439 16.5747 16.57Z" fill="#F2F2F2"/>
</svg>
