<svg width="22" height="22" viewBox="0 0 22 22" fill="none" xmlns="http://www.w3.org/2000/svg">
<path d="M10.8667 0C4.94845 0 0.134766 4.81369 0.134766 10.7319C0.134766 12.7497 0.696467 14.7109 1.76025 16.4117C1.33662 17.896 0.570947 20.7076 0.564671 20.7359C0.523877 20.8802 0.567809 21.0371 0.674501 21.1407C0.784331 21.2442 0.941231 21.285 1.08244 21.238L5.33442 19.9294C7.0007 20.9336 8.9086 21.4639 10.8667 21.4639C16.785 21.4639 21.5987 16.6502 21.5987 10.7319C21.5987 4.81369 16.785 0 10.8667 0ZM16.0978 15.144C15.7871 15.8061 15.3352 16.3552 14.6825 16.7036C14.4974 16.804 14.2777 16.8353 14.0706 16.8981C13.8321 16.8259 13.603 16.7757 13.3928 16.6879C11.1993 15.7778 9.18161 14.6042 7.58123 12.8062C6.67121 11.7832 5.96202 10.6284 5.35953 9.40457C5.07397 8.82404 4.83548 8.22155 4.58758 7.62533C4.36478 7.07932 4.69427 6.51448 5.03945 6.1034C5.3658 5.71743 5.78316 5.42246 6.23503 5.2028C6.58962 5.03335 6.93794 5.13062 7.19526 5.43187C7.75382 6.08144 8.26531 6.76238 8.68267 7.51236C8.93684 7.97365 8.86781 8.53849 8.40652 8.85229C8.29356 8.9276 8.19 9.0186 8.08645 9.10333C7.99545 9.17864 7.90758 9.25709 7.84482 9.3575C7.72872 9.54578 7.72244 9.76544 7.79775 9.96941C8.36887 11.5384 9.32909 12.7591 10.9106 13.4149C11.1648 13.5185 11.4159 13.6409 11.7077 13.6095C12.1941 13.553 12.3541 13.0195 12.6962 12.7371C13.0288 12.4641 13.4556 12.461 13.8164 12.6869C14.1773 12.916 14.5256 13.1576 14.8708 13.4055C15.2097 13.6471 15.5486 13.8856 15.8624 14.1618C16.1636 14.4348 16.2672 14.7831 16.0978 15.144ZM13.2673 10.0322C13.1167 10.0353 13.1951 10.0322 13.2516 10.029C13.0225 10.0259 12.9001 9.89724 12.875 9.68386C12.8562 9.53009 12.8436 9.37633 12.806 9.22571C12.7338 8.93074 12.5769 8.65773 12.329 8.47886C12.2129 8.39414 12.0811 8.33138 11.943 8.29059C11.7673 8.24038 11.5853 8.25293 11.4096 8.209C11.2182 8.16193 11.1146 8.00817 11.1429 7.8293C11.1711 7.66612 11.328 7.5406 11.5069 7.55316C12.6177 7.63474 13.4148 8.209 13.5277 9.51754C13.5371 9.60854 13.5466 9.70896 13.5246 9.79682C13.4901 9.94431 13.3865 10.0165 13.2798 10.029C13.2924 10.029 13.2955 10.029 13.2673 10.0322ZM12.5738 7.03853C12.2317 6.87221 11.8646 6.76866 11.488 6.7059C11.3249 6.67766 11.1585 6.66197 10.9954 6.64C10.7977 6.61176 10.691 6.48624 10.7004 6.28854C10.7098 6.1034 10.8447 5.97161 11.0456 5.98416C11.7046 6.02181 12.3384 6.16302 12.9252 6.47369C14.1145 7.10442 14.7955 8.09917 14.9932 9.42654C15.0026 9.48616 15.0151 9.54578 15.0214 9.60541C15.034 9.75603 15.0402 9.90351 15.0497 10.1012C15.0465 10.1357 15.0434 10.2205 15.0214 10.302C14.9461 10.5907 14.5099 10.6253 14.4095 10.3366C14.3781 10.2487 14.375 10.1514 14.375 10.0604C14.375 9.45164 14.2432 8.84601 13.9357 8.31883C13.6187 7.76968 13.1386 7.31467 12.5738 7.03853ZM16.2515 11.143C16.0224 11.1462 15.9189 10.9547 15.9032 10.7476C15.875 10.3397 15.853 9.92862 15.7965 9.52382C15.4984 7.38684 13.7945 5.62015 11.67 5.24045C11.35 5.18397 11.0236 5.16828 10.6973 5.13376C10.4933 5.1118 10.2234 5.09924 10.1795 4.84507C10.1418 4.63168 10.3207 4.46223 10.5247 4.44968C10.5812 4.44654 10.6345 4.44968 10.691 4.44968C13.4681 4.52813 10.8134 4.45595 10.6941 4.44968C13.5623 4.53127 15.9157 6.43603 16.421 9.26964C16.5057 9.75289 16.5371 10.2456 16.5747 10.7382C16.5904 10.9453 16.4743 11.1399 16.2515 11.143Z" fill="#D536FD"/>
</svg>
