<svg width="24" height="23" viewBox="0 0 24 23" fill="none" xmlns="http://www.w3.org/2000/svg">
<path d="M11.8507 0C5.61914 0 0.566406 5.05274 0.566406 11.2843C0.566406 17.5159 5.61914 22.5686 11.8507 22.5686C18.0823 22.5686 23.135 17.5159 23.135 11.2843C23.135 5.05274 18.0823 0 11.8507 0ZM18.6848 15.7805C18.4153 16.5408 17.346 17.174 16.4915 17.3581C15.9087 17.483 15.144 17.5816 12.5782 16.5167C9.29366 15.156 7.17922 11.8189 7.01489 11.602C6.85713 11.3851 5.68707 9.83596 5.68707 8.23206C5.68707 6.62815 6.50217 5.84811 6.82864 5.51287C7.09815 5.23679 7.54295 5.1119 7.97022 5.1119C8.10826 5.1119 8.23315 5.11847 8.3449 5.12504C8.67357 5.13819 8.83791 5.15791 9.05483 5.67721C9.32434 6.32578 9.98167 7.92968 10.0584 8.09621C10.1372 8.26054 10.2183 8.48404 10.1066 8.70096C10.0014 8.92445 9.90937 9.02306 9.74503 9.21368C9.5807 9.40431 9.42294 9.54893 9.2586 9.7527C9.10741 9.93018 8.93651 10.1208 9.12713 10.4473C9.31776 10.7694 9.97291 11.8408 10.9392 12.6998C12.1859 13.8107 13.1982 14.1656 13.5598 14.3168C13.8293 14.4286 14.1514 14.4023 14.3486 14.1919C14.5984 13.9224 14.9073 13.4754 15.2207 13.035C15.4441 12.7195 15.7268 12.68 16.0226 12.7918C16.325 12.897 17.9201 13.6858 18.2488 13.8501C18.5775 14.0144 18.7944 14.0933 18.8733 14.2314C18.9543 14.3672 18.9543 15.018 18.6848 15.7805Z" fill="white"/>
</svg>
