<svg width="24" height="23" viewBox="0 0 24 23" fill="none" xmlns="http://www.w3.org/2000/svg">
<path d="M11.72 8.87276C10.3941 8.87276 9.32125 9.94606 9.32125 11.2726C9.32125 12.5992 10.3941 13.6725 11.72 13.6725C13.0459 13.6725 14.1187 12.5992 14.1187 11.2726C14.1187 9.94606 13.0459 8.87276 11.72 8.87276Z" fill="#F2F2F2"/>
<path d="M11.723 0C5.473 0 0.404297 5.07109 0.404297 11.324C0.404297 17.577 5.473 22.648 11.723 22.648C17.973 22.648 23.0417 17.577 23.0417 11.324C23.0417 5.06807 17.973 0 11.723 0ZM18.3738 15.0354C18.3738 16.7539 16.9695 18.1619 15.2488 18.1619H8.1942C6.4765 18.1619 5.0692 16.7569 5.0692 15.0354V7.61266C5.0692 5.89416 6.47349 4.4862 8.1942 4.4862H15.2488C16.9665 4.4862 18.3738 5.89115 18.3738 7.61266V15.0354Z" fill="#F2F2F2"/>
<path d="M14.5045 5.50824H8.94156C8.18517 5.50824 7.47097 5.80671 6.93155 6.34638C6.39213 6.88605 6.0938 7.60059 6.0938 8.35734V14.2877C6.0938 15.0444 6.39213 15.759 6.93155 16.2986C7.47097 16.8383 8.18517 17.1368 8.94156 17.1368H14.5045C15.2609 17.1368 15.9751 16.8383 16.5145 16.2986C17.0539 15.759 17.3522 15.0444 17.3522 14.2877V8.35734C17.3522 7.60059 17.0539 6.88605 16.5145 6.34638C15.9751 5.80671 15.2609 5.50824 14.5045 5.50824ZM11.7441 14.9359C9.72205 14.9359 8.07969 13.2958 8.07969 11.2697C8.07969 9.24674 9.71904 7.60361 11.7441 7.60361C13.7692 7.60361 15.4085 9.24372 15.4085 11.2697C15.4055 13.2958 13.7662 14.9359 11.7441 14.9359ZM15.4658 8.41764C14.9866 8.41764 14.5979 8.02871 14.5979 7.54934C14.5979 7.06997 14.9866 6.68104 15.4658 6.68104C15.9449 6.68104 16.3337 7.06997 16.3337 7.54934C16.3337 8.02871 15.9449 8.41764 15.4658 8.41764Z" fill="#F2F2F2"/>
</svg>
