<svg width="23" height="22" viewBox="0 0 23 22" fill="none" xmlns="http://www.w3.org/2000/svg">
<path d="M11.3316 0C5.4133 0 0.599609 4.81369 0.599609 10.7319C0.599609 12.7497 1.16131 14.7109 2.22509 16.4117C1.80146 17.896 1.03579 20.7076 1.02951 20.7359C0.988721 20.8802 1.03265 21.0371 1.13934 21.1407C1.24917 21.2442 1.40607 21.285 1.54728 21.238L5.79927 19.9294C7.46554 20.9336 9.37345 21.4639 11.3316 21.4639C17.2498 21.4639 22.0635 16.6502 22.0635 10.7319C22.0635 4.81369 17.2498 0 11.3316 0ZM18.0563 15.2005C17.7833 15.9755 16.6944 16.6157 15.8283 16.804C15.2352 16.9295 14.4601 17.0299 11.8493 15.9504C8.5105 14.5666 6.36097 11.1775 6.19466 10.9547C6.03462 10.7351 4.84532 9.15981 4.84532 7.52805C4.84532 5.89629 5.67375 5.10552 6.00638 4.76348C6.27938 4.4842 6.73439 4.35554 7.16743 4.35554C7.30864 4.35554 7.43416 4.36181 7.54713 4.36809C7.87976 4.38378 8.04921 4.40261 8.26887 4.92979C8.54188 5.58877 9.21027 7.22053 9.28872 7.38684C9.37031 7.55316 9.4519 7.78223 9.33579 8.00189C9.2291 8.22783 9.13496 8.33138 8.96864 8.5228C8.80233 8.71735 8.64229 8.86484 8.47598 9.07195C8.32222 9.25081 8.14963 9.44537 8.34105 9.778C8.5356 10.1043 9.20086 11.1932 10.183 12.0687C11.4508 13.1984 12.4801 13.5593 12.8472 13.7099C13.1202 13.8229 13.4466 13.7978 13.6474 13.5844C13.9016 13.3114 14.2154 12.8564 14.5354 12.4076C14.7614 12.0876 15.0501 12.0468 15.3513 12.1597C15.6589 12.2664 17.2812 13.0698 17.6138 13.2329C17.9465 13.3992 18.1661 13.4808 18.2477 13.622C18.3324 13.7664 18.3324 14.4254 18.0563 15.2005Z" fill="#47D25C"/>
</svg>
